Muli-600.ufo
<glyph name="four" format="1">
  <advance width="1242.48"/>
  <unicode hex="0034"/>
  <outline>
    <contour>
      <point x="741.36" y="0.0" type="line"/>
      <point x="776.04" y="391.08" type="line"/>
      <point x="137.8" y="391.08" type="line"/>
      <point x="150.48" y="540.28" type="line"/>
      <point x="838.6" y="1456.0" type="line"/>
      <point x="1090.32" y="1456.0" type="line"/>
      <point x="1011.72" y="559.8" type="line"/>
      <point x="1216.88" y="559.8" type="line"/>
      <point x="1202.16" y="391.08" type="line"/>
      <point x="999.72" y="391.08" type="line"/>
      <point x="965.04" y="0.0" type="line"/>
    </contour>
    <contour>
      <point x="384.76" y="559.8" type="line"/>
      <point x="792.8" y="559.8" type="line"/>
      <point x="846.56" y="1173.96" type="line"/>
      <point x="742.76" y="1032.28" type="line"/>
    </contour>
  </outline>
</glyph>
<glyph name="semicolon" format="1">
  <advance width="541.6"/>
  <unicode hex="003B"/>
  <outline>
    <contour>
      <point x="31.52" y="-245.12" type="line"/>
      <point x="180.92" y="242.36" type="line"/>
      <point x="422.64" y="242.36" type="line"/>
      <point x="208.76" y="-245.12" type="line"/>
    </contour>
    <contour>
      <point x="219.16" y="866.84" type="line"/>
      <point x="240.56" y="1112.2" type="line"/>
      <point x="477.96" y="1112.2" type="line"/>
      <point x="456.56" y="866.84" type="line"/>
    </contour>
  </outline>
</glyph>
<glyph name="C" format="1">
  <advance width="1409.68"/>
  <unicode hex="0043"/>
  <outline>
    <contour>
      <point x="818.08" y="-22.32" type="curve" smooth="yes"/>
      <point x="352.56" y="-8.72"/>
      <point x="142.52" y="327.36"/>
      <point x="168.0" y="710.96" type="curve" smooth="yes"/>
      <point x="194.48" y="1108.0"/>
      <point x="479.64" y="1482.32"/>
      <point x="930.8" y="1482.32" type="curve" smooth="yes"/>
      <point x="1121.32" y="1482.32"/>
      <point x="1278.24" y="1431.56"/>
      <point x="1401.8" y="1314.72" type="curve"/>
      <point x="1303.32" y="1164.32" type="line"/>
      <point x="1193.0" y="1248.48"/>
      <point x="1068.72" y="1294.56"/>
      <point x="940.2" y="1294.56" type="curve" smooth="yes"/>
      <point x="616.76" y="1294.56"/>
      <point x="421.2" y="1021.32"/>
      <point x="399.64" y="712.68" type="curve" smooth="yes"/>
      <point x="380.12" y="430.64"/>
      <point x="514.52" y="168.32"/>
      <point x="854.16" y="165.12" type="curve" smooth="yes"/>
      <point x="995.32" y="163.84"/>
      <point x="1147.0" y="216.2"/>
      <point x="1277.6" y="316.28" type="curve"/>
      <point x="1334.84" y="135.84" type="line"/>
      <point x="1194.0" y="31.4"/>
      <point x="1022.28" y="-28.28"/>
    </contour>
  </outline>
</glyph>
<glyph name="E" format="1">
  <advance width="1206.6165369"/>
  <unicode hex="0045"/>
  <outline>
    <contour>
      <point x="188.64" y="0.0" type="line"/>
      <point x="316.64" y="1456.0" type="line"/>
      <point x="1209.68" y="1456.0" type="line"/>
      <point x="1193.28" y="1267.88" type="line"/>
      <point x="519.84" y="1267.88" type="line"/>
      <point x="482.28" y="839.72" type="line"/>
      <point x="1118.4" y="839.72" type="line"/>
      <point x="1101.32" y="650.92" type="line"/>
      <point x="466.56" y="650.92" type="line"/>
      <point x="426.0" y="188.12" type="line"/>
      <point x="1127.4" y="188.12" type="line"/>
      <point x="1111.0" y="0.0" type="line"/>
    </contour>
  </outline>
</glyph>
<glyph name="G" format="1">
  <advance width="1529.21900305"/>
  <unicode hex="0047"/>
  <outline>
    <contour>
      <point x="844.48" y="-22.32" type="curve" smooth="yes"/>
      <point x="359.04" y="-22.32"/>
      <point x="129.68" y="267.0"/>
      <point x="167.68" y="703.04" type="curve" smooth="yes"/>
      <point x="204.68" y="1129.0"/>
      <point x="516.72" y="1482.32"/>
      <point x="997.6" y="1482.32" type="curve" smooth="yes"/>
      <point x="1312.44" y="1482.32"/>
      <point x="1460.92" y="1338.44"/>
      <point x="1460.92" y="1338.44" type="curve"/>
      <point x="1366.52" y="1177.52" type="line"/>
      <point x="1366.52" y="1177.52"/>
      <point x="1239.76" y="1294.56"/>
      <point x="984.92" y="1294.56" type="curve" smooth="yes"/>
      <point x="632.28" y="1294.56"/>
      <point x="423.28" y="1013.28"/>
      <point x="397.32" y="714.68" type="curve" smooth="yes"/>
      <point x="369.04" y="391.52"/>
      <point x="519.76" y="165.12"/>
      <point x="872.84" y="165.12" type="curve" smooth="yes"/>
      <point x="967.48" y="165.12"/>
      <point x="1086.76" y="182.44"/>
      <point x="1176.24" y="212.6" type="curve"/>
      <point x="1207.8" y="589.64" type="line"/>
      <point x="839.56" y="589.64" type="line"/>
      <point x="855.96" y="778.08" type="line"/>
      <point x="1431.56" y="778.08" type="line"/>
      <point x="1373.92" y="88.48" type="line"/>
      <point x="1197.08" y="6.0"/>
      <point x="1013.44" y="-22.32"/>
    </contour>
  </outline>
</glyph>
<glyph name="S" format="1">
  <advance width="1231.6"/>
  <unicode hex="0053"/>
  <outline>
    <contour>
      <point x="627.08" y="-22.32" type="curve" smooth="yes"/>
      <point x="308.72" y="-22.32"/>
      <point x="146.48" y="143.04"/>
      <point x="146.48" y="143.04" type="curve"/>
      <point x="253.76" y="300.92" type="line"/>
      <point x="253.76" y="300.92"/>
      <point x="426.96" y="165.12"/>
      <point x="633.96" y="165.12" type="curve" smooth="yes"/>
      <point x="821.96" y="165.12"/>
      <point x="921.76" y="242.48"/>
      <point x="934.4" y="386.92" type="curve" smooth="yes"/>
      <point x="946.32" y="523.48"/>
      <point x="838.2" y="585.52"/>
      <point x="618.84" y="661.68" type="curve" smooth="yes"/>
      <point x="379.72" y="744.56"/>
      <point x="209.36" y="843.8"/>
      <point x="231.36" y="1089.28" type="curve" smooth="yes"/>
      <point x="253.36" y="1349.04"/>
      <point x="485.28" y="1482.32"/>
      <point x="758.72" y="1482.32" type="curve" smooth="yes"/>
      <point x="1096.88" y="1482.32"/>
      <point x="1206.32" y="1323.44"/>
      <point x="1206.32" y="1323.44" type="curve"/>
      <point x="1080.36" y="1176.88" type="line"/>
      <point x="1080.36" y="1176.88"/>
      <point x="988.4" y="1294.56"/>
      <point x="774.72" y="1294.56" type="curve" smooth="yes"/>
      <point x="633.52" y="1294.56"/>
      <point x="476.52" y="1243.88"/>
      <point x="463.92" y="1098.6" type="curve" smooth="yes"/>
      <point x="450.68" y="953.16"/>
      <point x="563.0" y="908.88"/>
      <point x="774.08" y="834.36" type="curve" smooth="yes"/>
      <point x="1036.64" y="742.32"/>
      <point x="1186.32" y="632.32"/>
      <point x="1164.64" y="385.48" type="curve" smooth="yes"/>
      <point x="1139.32" y="92.0"/>
      <point x="894.56" y="-22.32"/>
    </contour>
  </outline>
</glyph>
<glyph name="V" format="1">
  <advance width="1331.96"/>
  <unicode hex="0056"/>
  <outline>
    <contour>
      <point x="558.841551968" y="0.0" type="line"/>
      <point x="157.703494094" y="1456.0" type="line"/>
      <point x="401.740775984" y="1456.0" type="line"/>
      <point x="637.601551968" y="500.64" type="line"/>
      <point x="698.121551968" y="278.04" type="line"/>
      <point x="797.561551968" y="500.28" type="line"/>
      <point x="1201.06349409" y="1456.0" type="line"/>
      <point x="1430.38349409" y="1456.0" type="line"/>
      <point x="780.164270078" y="0.0" type="line"/>
    </contour>
  </outline>
</glyph>
<glyph name="backslash" format="1">
  <advance width="842.8"/>
  <unicode hex="005C"/>
  <outline>
    <contour>
      <point x="646.08" y="-54.4" type="line"/>
      <point x="146.16" y="1456.0" type="line"/>
      <point x="369.24" y="1456.0" type="line"/>
      <point x="865.8" y="-54.4" type="line"/>
    </contour>
  </outline>
</glyph>
<glyph name="asciicircum" format="1">
  <advance width="1346.96"/>
  <unicode hex="005E"/>
  <outline>
    <contour>
      <point x="175.48" y="569.92" type="line"/>
      <point x="738.56" y="1456.0" type="line"/>
      <point x="874.24" y="1456.0" type="line"/>
      <point x="1287.96" y="569.92" type="line"/>
      <point x="1077.2" y="569.92" type="line"/>
      <point x="782.76" y="1219.4" type="line"/>
      <point x="389.28" y="569.92" type="line"/>
    </contour>
  </outline>
</glyph>
<glyph name="c" format="1">
  <advance width="1043.56"/>
  <unicode hex="0063"/>
  <outline>
    <contour>
      <point x="618.68" y="-22.32" type="curve" smooth="yes"/>
      <point x="291.2" y="-22.32"/>
      <point x="116.76" y="206.52"/>
      <point x="142.72" y="505.04" type="curve" smooth="yes"/>
      <point x="169.68" y="815.52"/>
      <point x="393.32" y="1055.2"/>
      <point x="714.68" y="1051.68" type="curve" smooth="yes"/>
      <point x="861.08" y="1050.08"/>
      <point x="985.56" y="1004.4"/>
      <point x="1057.12" y="918.6" type="curve"/>
      <point x="956.36" y="783.52" type="line"/>
      <point x="900.76" y="840.96"/>
      <point x="826.2" y="878.92"/>
      <point x="716.72" y="878.92" type="curve" smooth="yes"/>
      <point x="514.6" y="878.92"/>
      <point x="384.96" y="735.88"/>
      <point x="365.0" y="507.32" type="curve" smooth="yes"/>
      <point x="346.04" y="289.52"/>
      <point x="455.12" y="149.12"/>
      <point x="654.36" y="149.12" type="curve" smooth="yes"/>
      <point x="778.4" y="149.12"/>
      <point x="878.8" y="204.16"/>
      <point x="935.36" y="244.16" type="curve"/>
      <point x="987.56" y="89.72" type="line"/>
      <point x="881.16" y="15.6"/>
      <point x="760.68" y="-22.32"/>
    </contour>
  </outline>
</glyph>
<glyph name="g" format="1">
  <advance width="1237.22244296"/>
  <unicode hex="0067"/>
  <outline>
    <contour>
      <point x="525.70614902" y="-429.48" type="curve" smooth="yes"/>
      <point x="358.90614902" y="-429.48"/>
      <point x="227.48" y="-389.32"/>
      <point x="151.2" y="-346.8" type="curve"/>
      <point x="195.44" y="-163.2" type="line"/>
      <point x="254.84" y="-199.44"/>
      <point x="362.70614902" y="-252.76"/>
      <point x="527.06614902" y="-252.76" type="curve" smooth="yes"/>
      <point x="740.78614902" y="-252.76"/>
      <point x="868.36" y="-164.64"/>
      <point x="885.86614902" y="34.72" type="curve" smooth="yes"/>
      <point x="897.159662716" y="155.0" type="line"/>
      <point x="854.879662716" y="78.48"/>
      <point x="741.68" y="6.8"/>
      <point x="581.22614902" y="6.8" type="curve" smooth="yes"/>
      <point x="300.32" y="6.8"/>
      <point x="113.825811737" y="202.44"/>
      <point x="140.825811737" y="512.36" type="curve" smooth="yes"/>
      <point x="167.105811737" y="814.44"/>
      <point x="370.16" y="1051.68"/>
      <point x="674.68" y="1051.68" type="curve" smooth="yes"/>
      <point x="818.88" y="1051.68"/>
      <point x="929.96" y="961.28"/>
      <point x="960.0" y="881.92" type="curve"/>
      <point x="975.425811737" y="1026.0" type="line"/>
      <point x="1197.54581174" y="1026.0" type="line"/>
      <point x="1197.54581174" y="1026.0"/>
      <point x="1169.06581174" y="867.2"/>
      <point x="1156.62581174" y="719.96" type="curve" smooth="yes"/>
      <point x="1105.10614902" y="135.44" type="line" smooth="yes"/>
      <point x="1078.26614902" y="-168.04"/>
      <point x="944.34614902" y="-429.48"/>
    </contour>
    <contour>
      <point x="614.46614902" y="171.72" type="curve" smooth="yes"/>
      <point x="820.8" y="171.72"/>
      <point x="920.025811737" y="332.4"/>
      <point x="937.265811737" y="529.6" type="curve" smooth="yes"/>
      <point x="955.225811737" y="733.52"/>
      <point x="870.14614902" y="879.6"/>
      <point x="687.06614902" y="879.6" type="curve" smooth="yes"/>
      <point x="498.30614902" y="879.6"/>
      <point x="382.705811737" y="719.84"/>
      <point x="364.785811737" y="514.32" type="curve" smooth="yes"/>
      <point x="346.145811737" y="302.4"/>
      <point x="419.16" y="171.72"/>
    </contour>
  </outline>
</glyph>
<glyph name="uni007F" format="1">
  <advance width="1521.0"/>
  <unicode hex="007F"/>
  <outline>
    <contour>
      <point x="191.16" y="0.0" type="line"/>
      <point x="319.16" y="1456.0" type="line"/>
      <point x="1464.16" y="1456.0" type="line"/>
      <point x="1336.16" y="0.0" type="line"/>
    </contour>
    <contour>
      <point x="480.16" y="1330.0" type="line"/>
      <point x="374.16" y="124.0" type="line"/>
      <point x="1175.16" y="124.0" type="line"/>
      <point x="1281.16" y="1330.0" type="line"/>
    </contour>
  </outline>
</glyph>
<glyph name="registered" format="1">
  <advance width="1829.32002108"/>
  <unicode hex="00AE"/>
  <outline>
    <contour>
      <point x="821.217391019" y="808.16" type="line"/>
      <point x="927.857391019" y="808.16" type="line" smooth="yes"/>
      <point x="1071.97739102" y="808.16"/>
      <point x="1159.25739102" y="819.08"/>
      <point x="1168.21739102" y="924.08" type="curve" smooth="yes"/>
      <point x="1178.17739102" y="1040.08"/>
      <point x="1117.13739102" y="1053.64"/>
      <point x="942.817391019" y="1053.64" type="curve" smooth="yes"/>
      <point x="842.817391019" y="1053.64" type="line"/>
    </contour>
    <contour>
      <point x="584.657391019" y="283.2" type="line"/>
      <point x="665.657391019" y="1206.96" type="line"/>
      <point x="956.337391019" y="1206.96" type="line" smooth="yes"/>
      <point x="1245.61739102" y="1206.96"/>
      <point x="1376.97739102" y="1110.88"/>
      <point x="1362.29739102" y="937.72" type="curve" smooth="yes"/>
      <point x="1351.97739102" y="821.84"/>
      <point x="1278.61739102" y="712.84"/>
      <point x="1098.41739102" y="683.72" type="curve"/>
      <point x="1167.77739102" y="628.64"/>
      <point x="1223.17739102" y="528.48"/>
      <point x="1345.05739102" y="283.2" type="curve"/>
      <point x="1113.81739102" y="283.2" type="line"/>
      <point x="1039.01739102" y="476.32"/>
      <point x="959.857391019" y="628.24"/>
      <point x="914.177391019" y="655.84" type="curve"/>
      <point x="808.457391019" y="655.84" type="line"/>
      <point x="775.497391019" y="283.2" type="line"/>
    </contour>
    <contour>
      <point x="1021.13739102" y="1366.2" type="curve" smooth="yes"/>
      <point x="642.857391019" y="1366.2"/>
      <point x="339.177391019" y="1088.12"/>
      <point x="308.177391019" y="730.12" type="curve" smooth="yes"/>
      <point x="276.497391019" y="370.4"/>
      <point x="532.937391019" y="88.96"/>
      <point x="911.897391019" y="88.96" type="curve" smooth="yes"/>
      <point x="1288.17739102" y="88.96"/>
      <point x="1593.17739102" y="369.72"/>
      <point x="1624.17739102" y="726.72" type="curve" smooth="yes"/>
      <point x="1655.85739102" y="1087.44"/>
      <point x="1398.77739102" y="1366.2"/>
    </contour>
    <contour>
      <point x="1028.81739102" y="1483.64" type="curve" smooth="yes"/>
      <point x="1478.85739102" y="1483.64"/>
      <point x="1797.77739102" y="1140.16"/>
      <point x="1761.45739102" y="728.4" type="curve" smooth="yes"/>
      <point x="1725.13739102" y="314.2"/>
      <point x="1346.85739102" y="-25.88"/>
      <point x="902.257391019" y="-25.88" type="curve" smooth="yes"/>
      <point x="449.537391019" y="-25.88"/>
      <point x="133.337391019" y="315.56"/>
      <point x="169.657391019" y="730.44" type="curve" smooth="yes"/>
      <point x="205.977391019" y="1143.56"/>
      <point x="585.617391019" y="1483.64"/>
    </contour>
  </outline>
</glyph>
<glyph name="acute" format="1">
  <advance width="607.0"/>
  <unicode hex="00B4"/>
  <outline>
    <contour>
      <point x="131.88" y="1169.28" type="line"/>
      <point x="408.32" y="1485.88" type="line"/>
      <point x="682.2" y="1485.88" type="line"/>
      <point x="319.0" y="1169.28" type="line"/>
    </contour>
  </outline>
</glyph>
<glyph name="middot" format="1">
  <advance width="444"/>
  <unicode hex="00B7"/>
  <outline>
    <contour>
      <point x="156" y="513" type="line"/>
      <point x="156" y="723" type="line"/>
      <point x="373" y="723" type="line"/>
      <point x="373" y="513" type="line"/>
    </contour>
  </outline>
</glyph>
<glyph name="onehalf" format="1">
  <advance width="2316.48"/>
  <unicode hex="00BD"/>
  <outline>
    <contour>
      <point x="364.56" y="586.08" type="line"/>
      <point x="377.96" y="745.2" type="line"/>
      <point x="493.84" y="745.2" type="line"/>
      <point x="534.36" y="1206.16" type="line"/>
      <point x="493.44" y="1187.24"/>
      <point x="430.68" y="1163.6"/>
      <point x="383.16" y="1147.0" type="curve"/>
      <point x="398.92" y="1323.92" type="line"/>
      <point x="483.84" y="1351.0"/>
      <point x="538.16" y="1378.32"/>
      <point x="582.76" y="1402.92" type="curve"/>
      <point x="719.0" y="1422.0" type="line"/>
      <point x="659.72" y="742.88" type="line"/>
      <point x="776.96" y="742.88" type="line"/>
      <point x="763.56" y="586.08" type="line"/>
    </contour>
    <contour>
      <point x="1443.08" y="0.0" type="line"/>
      <point x="1455.8" y="145.0" type="line"/>
      <point x="1789.52" y="403.68"/>
      <point x="1894.56" y="518.44"/>
      <point x="1901.84" y="596.8" type="curve" smooth="yes"/>
      <point x="1907.84" y="662.44"/>
      <point x="1862.24" y="694.52"/>
      <point x="1790.88" y="694.52" type="curve" smooth="yes"/>
      <point x="1716.72" y="694.52"/>
      <point x="1630.36" y="656.76"/>
      <point x="1562.24" y="599.56" type="curve"/>
      <point x="1501.92" y="725.16" type="line"/>
      <point x="1587.52" y="801.88"/>
      <point x="1703.68" y="844.84"/>
      <point x="1815.04" y="844.84" type="curve" smooth="yes"/>
      <point x="1970.48" y="844.84"/>
      <point x="2089.4" y="763.64"/>
      <point x="2075.36" y="598.8" type="curve" smooth="yes"/>
      <point x="2061.04" y="433.6"/>
      <point x="1893.16" y="299.8"/>
      <point x="1701.36" y="158.12" type="curve"/>
      <point x="2029.32" y="158.12" type="line"/>
      <point x="2014.92" y="0.0" type="line"/>
    </contour>
    <contour>
      <point x="569.28" y="0.0" type="line"/>
      <point x="1588.0" y="1424.04" type="line"/>
      <point x="1794.8" y="1424.04" type="line"/>
      <point x="777.4" y="0.0" type="line"/>
    </contour>
  </outline>
</glyph>
<glyph name="Thorn" format="1">
  <advance width="1288.96"/>
  <unicode hex="00DE"/>
  <outline>
    <contour>
      <point x="170.96" y="0.0" type="line"/>
      <point x="297.6" y="1447.16" type="line"/>
      <point x="516.52" y="1447.16" type="line"/>
      <point x="496.88" y="1218.4" type="line"/>
      <point x="678.04" y="1218.4" type="line" smooth="yes"/>
      <point x="1020.08" y="1218.4"/>
      <point x="1287.36" y="1142.76"/>
      <point x="1255.68" y="775.6" type="curve" smooth="yes"/>
      <point x="1228.68" y="466.16"/>
      <point x="951.96" y="335.8"/>
      <point x="633.96" y="335.8" type="curve" smooth="yes"/>
      <point x="418.16" y="335.8" type="line"/>
      <point x="388.52" y="0.0" type="line"/>
    </contour>
    <contour>
      <point x="434.56" y="524.24" type="line"/>
      <point x="675.68" y="524.24" type="line" smooth="yes"/>
      <point x="871.2" y="524.24"/>
      <point x="1005.04" y="600.04"/>
      <point x="1020.0" y="774.96" type="curve" smooth="yes"/>
      <point x="1037.96" y="982.8"/>
      <point x="900.76" y="1031.64"/>
      <point x="674.28" y="1031.64" type="curve" smooth="yes"/>
      <point x="479.12" y="1031.64" type="line"/>
    </contour>
  </outline>
</glyph>
<glyph name="kgreenlandic" format="1">
  <advance width="1090.64"/>
  <unicode hex="0138"/>
  <outline>
    <contour>
      <point x="149.12" y="0.0" type="line"/>
      <point x="239.12" y="1026.0" type="line"/>
      <point x="451.72" y="1026.0" type="line"/>
      <point x="414.12" y="598.48" type="line"/>
      <point x="853.12" y="1026.0" type="line"/>
      <point x="1143.4" y="1026.0" type="line"/>
      <point x="579.28" y="509.96" type="line"/>
      <point x="634.32" y="455.56"/>
      <point x="1034.32" y="54.4"/>
      <point x="1089.36" y="0.0" type="curve"/>
      <point x="806.44" y="0.0" type="line"/>
      <point x="398.64" y="422.04" type="line"/>
      <point x="361.72" y="0.0" type="line"/>
    </contour>
  </outline>
</glyph>
<glyph name="Omega" format="1">
  <advance width="1603.0"/>
  <unicode hex="03A9"/>
  <outline>
    <contour>
      <point x="107.96" y="0.0" type="line"/>
      <point x="89.24" y="177.44" type="line"/>
      <point x="400.64" y="175.76" type="line"/>
      <point x="248.48" y="316.8"/>
      <point x="159.92" y="517.72"/>
      <point x="181.88" y="770.56" type="curve" smooth="yes"/>
      <point x="217.88" y="1179.2"/>
      <point x="538.24" y="1440.84"/>
      <point x="938.28" y="1440.84" type="curve" smooth="yes"/>
      <point x="1353.32" y="1440.84"/>
      <point x="1589.36" y="1147.84"/>
      <point x="1555.36" y="762.48" type="curve" smooth="yes"/>
      <point x="1532.4" y="504.0"/>
      <point x="1390.4" y="308.4"/>
      <point x="1227.4" y="175.76" type="curve"/>
      <point x="1283.16" y="175.76"/>
      <point x="1448.64" y="177.44"/>
      <point x="1501.68" y="177.44" type="curve"/>
      <point x="1469.12" y="0.0" type="line"/>
      <point x="925.0" y="0.0" type="line"/>
      <point x="932.36" y="149.56" type="line"/>
      <point x="1140.2" y="283.16"/>
      <point x="1303.4" y="496.92"/>
      <point x="1325.36" y="748.56" type="curve" smooth="yes"/>
      <point x="1349.32" y="1022.8"/>
      <point x="1218.96" y="1261.4"/>
      <point x="919.92" y="1261.4" type="curve" smooth="yes"/>
      <point x="645.8" y="1261.4"/>
      <point x="436.84" y="1052.36"/>
      <point x="410.56" y="752.2" type="curve" smooth="yes"/>
      <point x="388.6" y="500.56"/>
      <point x="504.84" y="279.12"/>
      <point x="692.0" y="149.56" type="curve"/>
      <point x="683.64" y="0.0" type="line"/>
    </contour>
  </outline>
</glyph>
<glyph name="quotesinglbase" format="1">
  <advance width="553.0"/>
  <unicode hex="201A"/>
  <outline>
    <contour>
      <point x="82.2" y="-227.8" type="line"/>
      <point x="234.36" y="236.36" type="line"/>
      <point x="468.4" y="236.36" type="line"/>
      <point x="265.52" y="-227.8" type="line"/>
    </contour>
  </outline>
</glyph>
<glyph name="quotedblbase" format="1">
  <advance width="1024.0"/>
  <unicode hex="201E"/>
  <outline>
    <contour>
      <point x="125.0" y="-227.8" type="line"/>
      <point x="274.12" y="236.36" type="line"/>
      <point x="509.16" y="236.36" type="line"/>
      <point x="310.0" y="-227.8" type="line"/>
    </contour>
    <contour>
      <point x="468.36" y="-227.8" type="line"/>
      <point x="617.84" y="236.36" type="line"/>
      <point x="853.2" y="236.36" type="line"/>
      <point x="649.64" y="-227.8" type="line"/>
    </contour>
  </outline>
</glyph>
<glyph name="approxequal" format="1">
  <advance width="1351.0"/>
  <unicode hex="2248"/>
  <outline>
    <contour>
      <point x="331.76" y="241.28" type="curve"/>
      <point x="170.44" y="284.92" type="line"/>
      <point x="230.92" y="458.2"/>
      <point x="353.76" y="567.08"/>
      <point x="513.56" y="567.08" type="curve" smooth="yes"/>
      <point x="607.6" y="567.08"/>
      <point x="693.68" y="522.72"/>
      <point x="769.04" y="480.4" type="curve" smooth="yes"/>
      <point x="838.0" y="449.24"/>
      <point x="892.52" y="408.56"/>
      <point x="933.2" y="408.56" type="curve" smooth="yes"/>
      <point x="999.52" y="408.56"/>
      <point x="1047.72" y="469.56"/>
      <point x="1094.36" y="573.88" type="curve"/>
      <point x="1249.96" y="532.96" type="line"/>
      <point x="1194.8" y="365.0"/>
      <point x="1090.76" y="251.12"/>
      <point x="914.84" y="251.12" type="curve" smooth="yes"/>
      <point x="833.48" y="251.12"/>
      <point x="752.0" y="286.84"/>
      <point x="653.44" y="348.12" type="curve" smooth="yes"/>
      <point x="597.6" y="379.64"/>
      <point x="541.6" y="407.64"/>
      <point x="499.2" y="407.64" type="curve" smooth="yes"/>
      <point x="421.24" y="407.64"/>
      <point x="367.04" y="343.32"/>
    </contour>
    <contour>
      <point x="364.44" y="602.04" type="curve"/>
      <point x="199.76" y="638.56" type="line"/>
      <point x="253.84" y="812.88"/>
      <point x="379.0" y="921.76"/>
      <point x="543.2" y="921.76" type="curve" smooth="yes"/>
      <point x="631.6" y="921.76"/>
      <point x="701.92" y="889.12"/>
      <point x="788.6" y="834.76" type="curve" smooth="yes"/>
      <point x="864.12" y="788.88"/>
      <point x="923.44" y="762.88"/>
      <point x="962.52" y="762.88" type="curve" smooth="yes"/>
      <point x="1028.16" y="762.88"/>
      <point x="1078.0" y="823.24"/>
      <point x="1124.68" y="928.2" type="curve"/>
      <point x="1279.96" y="890.0" type="line"/>
      <point x="1225.8" y="719.0"/>
      <point x="1117.36" y="608.16"/>
      <point x="944.48" y="608.16" type="curve" smooth="yes"/>
      <point x="854.36" y="608.16"/>
      <point x="781.72" y="637.08"/>
      <point x="680.08" y="701.76" type="curve" smooth="yes"/>
      <point x="623.56" y="737.36"/>
      <point x="573.32" y="765.68"/>
      <point x="526.16" y="765.68" type="curve" smooth="yes"/>
      <point x="453.28" y="765.68"/>
      <point x="402.44" y="697.96"/>
    </contour>
  </outline>
</glyph>
<glyph name="notequal" format="1">
  <advance width="1351.0"/>
  <unicode hex="2260"/>
  <outline>
    <contour>
      <point x="486.92" y="39.88" type="line"/>
      <point x="316.28" y="65.36" type="line"/>
      <point x="455.72" y="310.72" type="line"/>
      <point x="190.6" y="310.72" type="line"/>
      <point x="176.96" y="470.16" type="line"/>
      <point x="550.84" y="470.16" type="line"/>
      <point x="688.84" y="696.04" type="line"/>
      <point x="225.92" y="696.04" type="line"/>
      <point x="210.96" y="856.48" type="line"/>
      <point x="779.64" y="856.48" type="line"/>
      <point x="932.84" y="1122.32" type="line"/>
      <point x="1108.52" y="1097.52" type="line"/>
      <point x="968.04" y="856.48" type="line"/>
      <point x="1250.84" y="856.48" type="line"/>
      <point x="1264.44" y="696.04" type="line"/>
      <point x="877.6" y="696.04" type="line"/>
      <point x="737.24" y="470.16" type="line"/>
      <point x="1216.84" y="470.16" type="line"/>
      <point x="1230.48" y="310.72" type="line"/>
      <point x="644.8" y="310.72" type="line"/>
    </contour>
  </outline>
</glyph>
<glyph name="fi" format="1">
  <advance width="1208.31169759"/>
  <unicode hex="FB01"/>
  <outline>
    <contour>
      <point x="1168.51930876" y="1270.96" type="line"/>
      <point x="1185.23930876" y="1462.68" type="line"/>
      <point x="985.319308759" y="1462.68" type="line"/>
      <point x="968.599308759" y="1270.96" type="line"/>
    </contour>
    <contour>
      <point x="466.35930876" y="0.0" type="line"/>
      <point x="543.63930876" y="884.32" type="line"/>
      <point x="923.19930876" y="884.32" type="line"/>
      <point x="845.91930876" y="0.0" type="line"/>
      <point x="1058.51930876" y="0.0" type="line"/>
      <point x="1148.51930876" y="1026.0" type="line"/>
      <point x="556.03930876" y="1026.0" type="line"/>
      <point x="561.23930876" y="1088.88" type="line" smooth="yes"/>
      <point x="579.834722082" y="1284.02725321"/>
      <point x="603.534779264" y="1306.56724479"/>
      <point x="771.194430257" y="1307.50688675" type="curve" smooth="yes"/>
      <point x="774.035791934" y="1307.542724"/>
      <point x="825.942699034" y="1307.56"/>
      <point x="828.99930876" y="1307.56" type="curve"/>
      <point x="843.39930876" y="1472.96" type="line"/>
      <point x="800.03930876" y="1472.96" type="line"/>
      <point x="444.27930876" y="1471.68"/>
      <point x="372.03930876" y="1355.64"/>
      <point x="347.99930876" y="1080.84" type="curve" smooth="yes"/>
      <point x="343.43930876" y="1026.0" type="line"/>
      <point x="156.99930876" y="1026.0" type="line"/>
      <point x="144.59930876" y="884.32" type="line"/>
      <point x="331.03930876" y="884.32" type="line"/>
      <point x="253.75930876" y="0.0" type="line"/>
    </contour>
  </outline>
</glyph>
<glyph name="fl" format="1">
  <advance width="1275.25075291"/>
  <unicode hex="FB02"/>
  <outline>
    <contour>
      <point x="549.847974929" y="884.32" type="line"/>
      <point x="472.567974929" y="0.0" type="line"/>
      <point x="259.967974929" y="0.0" type="line"/>
      <point x="337.247974929" y="884.32" type="line"/>
      <point x="144.407974929" y="884.32" type="line"/>
      <point x="157.127974929" y="1026.0" type="line"/>
      <point x="349.967974929" y="1026.0" type="line"/>
      <point x="353.567974929" y="1072.52" type="line" smooth="yes"/>
      <point x="377.607974929" y="1347.6"/>
      <point x="467.767974929" y="1463.96"/>
      <point x="828.647974929" y="1463.96" type="curve" smooth="yes"/>
      <point x="1255.16797493" y="1463.96" type="line"/>
      <point x="1127.16797493" y="0.0" type="line"/>
      <point x="915.247974929" y="0.0" type="line"/>
      <point x="1028.84797493" y="1299.24" type="line"/>
      <point x="844.167974929" y="1299.24" type="line" smooth="yes"/>
      <point x="626.447974929" y="1299.24"/>
      <point x="582.167974929" y="1254.24"/>
      <point x="569.527974929" y="1113.2" type="curve" smooth="yes"/>
      <point x="562.567974929" y="1026.0" type="line"/>
      <point x="801.047974929" y="1026.0" type="line"/>
      <point x="788.327974929" y="884.32" type="line"/>
    </contour>
  </outline>
</glyph>
<glyph name="commaaccent" format="1">
  <advance width="540.0"/>
  <outline>
    <contour>
      <point x="59.48" y="-570.88" type="line"/>
      <point x="212.6" y="-83.4" type="line"/>
      <point x="453.32" y="-83.4" type="line"/>
      <point x="237.4" y="-570.88" type="line"/>
    </contour>
  </outline>
</glyph>
